<?xml version="1.0" standalone="no"?>
<!DOCTYPE svg PUBLIC "-//W3C//DTD SVG 20010904//EN"
 "http://www.w3.org/TR/2001/REC-SVG-20010904/DTD/svg10.dtd">
<svg version="1.0" xmlns="http://www.w3.org/2000/svg"
 width="2000.000000pt" height="2000.000000pt" viewBox="0 0 2000.000000 2000.000000"
 preserveAspectRatio="xMidYMid meet">
<metadata>
Created by potrace 1.11, written by Peter Selinger 2001-2013
</metadata>
<g transform="translate(0.000000,2000.000000) scale(0.100000,-0.100000)"
fill="#000000" stroke="none">
<path d="M9419 19579 c0 -2 -2 -254 -5 -559 -3 -305 -6 -611 -8 -680 l-2 -125
-145 -1 c-151 -2 -452 -12 -554 -19 -114 -8 -220 -17 -450 -41 -57 -6 -198
-23 -235 -29 -14 -2 -97 -15 -185 -29 -88 -14 -185 -31 -215 -36 -30 -6 -66
-13 -80 -15 -69 -10 -350 -73 -520 -117 -268 -69 -537 -149 -745 -223 -71 -25
-137 -47 -145 -49 -49 -13 -471 -184 -620 -253 -41 -19 -115 -53 -165 -76
-188 -87 -618 -312 -735 -387 -8 -5 -40 -23 -70 -41 -30 -17 -80 -47 -110 -67
-30 -19 -71 -45 -90 -57 -32 -20 -230 -151 -290 -192 -43 -29 -224 -157 -235
-165 -5 -5 -53 -41 -105 -80 -52 -39 -113 -85 -135 -102 -60 -47 -325 -266
-365 -302 -87 -78 -155 -138 -184 -163 -61 -51 -533 -528 -612 -616 -43 -49
-88 -99 -99 -110 -11 -12 -36 -41 -55 -65 -19 -24 -42 -51 -50 -59 -9 -9 -36
-41 -60 -71 -24 -30 -49 -59 -55 -65 -53 -49 -585 -776 -585 -800 0 -2 -26
-43 -58 -92 -33 -48 -81 -125 -108 -171 -27 -46 -62 -104 -77 -130 -15 -26
-32 -56 -38 -67 -5 -11 -32 -58 -59 -105 -68 -117 -313 -607 -382 -765 -210
-481 -382 -982 -508 -1485 -23 -91 -44 -176 -47 -190 -2 -14 -9 -45 -14 -70
-6 -25 -12 -54 -15 -65 -6 -30 -24 -117 -30 -145 -8 -39 -34 -181 -40 -220 -8
-50 -13 -82 -18 -110 -3 -14 -8 -45 -11 -70 -3 -25 -7 -56 -10 -70 -9 -45 -33
-232 -40 -310 -2 -30 -7 -75 -10 -100 -7 -62 -13 -130 -20 -235 -3 -49 -8
-117 -10 -150 -10 -133 -15 -445 -8 -446 16 -3 387 -7 608 -8 l230 -1 1 -193
c1 -288 16 -555 48 -837 3 -25 8 -67 11 -95 3 -27 8 -61 10 -75 2 -14 6 -45
10 -70 17 -141 68 -424 110 -615 15 -66 29 -131 31 -145 6 -33 72 -286 85
-326 5 -17 11 -40 13 -50 5 -25 90 -299 123 -394 79 -235 207 -558 314 -792
51 -112 209 -431 246 -498 11 -19 35 -62 53 -95 18 -33 74 -129 124 -213 50
-85 99 -168 110 -185 10 -18 22 -33 27 -35 5 -2 9 -8 9 -13 0 -32 344 -515
544 -764 310 -385 722 -812 1048 -1087 28 -24 60 -52 72 -63 12 -11 55 -47 96
-80 41 -33 84 -67 95 -76 157 -131 378 -291 625 -453 118 -77 224 -146 235
-153 11 -7 52 -31 90 -55 39 -23 85 -51 104 -61 19 -10 82 -46 140 -79 110
-62 514 -265 611 -307 30 -13 73 -31 95 -41 123 -56 357 -149 490 -196 39 -14
79 -29 90 -34 36 -16 326 -108 470 -149 284 -81 541 -141 819 -191 56 -10 110
-21 121 -23 11 -2 46 -8 79 -12 32 -3 68 -8 80 -10 11 -3 75 -11 141 -20 66
-8 134 -17 150 -20 17 -2 62 -7 100 -10 39 -3 90 -8 115 -11 92 -10 414 -26
565 -28 l90 -1 2 220 c2 121 4 312 6 425 l2 205 95 2 c131 2 438 13 480 17 19
2 80 6 135 10 55 4 111 9 125 11 14 2 52 7 85 10 33 4 74 9 90 11 17 2 50 6
75 9 52 6 96 13 125 19 11 2 45 7 75 11 30 4 64 9 75 11 11 3 56 11 100 19 44
8 114 22 155 30 41 9 86 19 100 21 49 10 377 93 480 123 271 77 653 215 905
326 311 137 592 281 855 437 123 73 463 293 493 318 6 6 47 35 91 66 43 31 84
60 90 65 6 5 67 53 136 106 69 53 127 100 130 103 3 3 30 25 60 50 30 25 73
61 95 81 22 20 85 76 140 124 116 103 413 399 531 530 363 401 725 901 976
1350 98 174 115 206 199 376 206 412 381 860 489 1251 17 62 35 124 40 138 8
21 21 73 55 210 15 59 57 251 61 279 3 18 7 41 9 50 16 87 37 201 40 221 8 59
16 106 20 125 2 11 7 47 11 79 3 33 7 67 9 77 2 10 7 49 10 86 4 37 8 79 10
93 4 23 10 98 21 230 6 78 17 343 18 416 l0 60 216 -2 c118 -2 508 -5 865 -9
358 -3 871 -8 1140 -11 270 -3 569 -6 665 -7 l175 -1 -1 234 c0 216 -10 514
-19 601 -2 21 -6 77 -10 125 -3 49 -7 105 -10 124 -2 19 -6 62 -10 95 -3 33
-8 85 -11 115 -5 53 -17 147 -30 240 -3 25 -7 56 -9 70 -3 29 -25 176 -31 205
-2 11 -6 36 -9 55 -3 19 -7 46 -10 60 -3 14 -12 65 -20 113 -9 49 -27 144 -41
210 -14 67 -28 133 -30 147 -3 14 -10 43 -16 65 -5 22 -12 49 -13 60 -2 11
-11 49 -20 85 -9 36 -18 72 -20 81 -7 32 -76 294 -90 339 -7 25 -23 79 -35
120 -94 324 -296 887 -401 1118 -16 34 -29 65 -29 67 0 5 -56 130 -125 280
-56 121 -235 478 -295 585 -29 52 -64 115 -77 140 -204 367 -581 942 -786
1200 -7 8 -34 44 -62 80 -58 76 -237 300 -257 321 -7 8 -30 35 -51 61 -21 26
-43 53 -50 60 -7 7 -41 47 -77 88 -62 72 -83 95 -231 255 -193 208 -532 537
-759 735 -47 41 -90 79 -96 84 -6 6 -30 27 -54 46 -24 19 -48 40 -54 45 -11
11 -239 194 -311 250 -78 61 -296 221 -360 265 -36 25 -71 50 -78 56 -23 20
-387 258 -522 341 -119 73 -214 129 -343 200 -26 14 -83 46 -127 71 -82 46
-506 260 -605 305 -30 13 -84 38 -120 54 -421 194 -993 401 -1480 537 -202 56
-502 131 -605 151 -11 2 -31 6 -45 9 -14 2 -59 12 -100 21 -41 9 -99 21 -127
26 -29 5 -79 14 -110 19 -93 17 -236 41 -268 46 -16 2 -41 6 -55 8 -14 3 -43
8 -65 10 -22 3 -76 10 -120 16 -116 15 -142 18 -215 25 -36 3 -76 8 -90 10
-49 9 -294 28 -515 40 -121 7 -475 17 -476 14z"/>
</g>
</svg>
