<svg viewBox="0 0 2000 1072" xmlns="http://www.w3.org/2000/svg" fill-rule="evenodd" clip-rule="evenodd" stroke-linejoin="round" stroke-miterlimit="2"><path d="M1110.05 209.802C742.398 433.794 407.106-12.593 118.6 345.767c-301.767 374.85 93.68 696.169 93.68 696.169h1466.992s392.364-247.048 309.135-596.318c-83.224-349.265-472.624-483.021-878.356-235.816z" fill="#d2eaf9" fill-rule="nonzero"/><path d="M584.278 118.508c70.512 169.351 532.706 85.786 441.866-63.165C988.65-6.14 878.198 95.67 809.992 39.366c-99.075-81.784-268.788-24.317-225.714 79.142z" fill="#d2eaf9" fill-rule="nonzero"/><path d="M196.671 1032.203s53.794-80.365 12.323-78.741c0 0 79.59-178.132 4.607-159.566 0 0 50.547-183.58-33.53-151.166 0 0-18.77-100.58-54.13-84.807-35.364 15.786-5.06 103.42-5.06 103.42S54.943 679.98 150.173 797.97c0 0-79.786-12.303 22.267 152.638 0 0-39.795.473-.546 83.177l24.777-1.583z" fill="#79b0dd"/><path d="M180.635 1043.98a3.097 3.097 0 002.84-2.458c39.163-184.553-36.515-426.757-37.278-429.188-.519-1.643-2.274-2.524-3.91-2.025a3.12 3.12 0 00-2.031 3.91c.769 2.413 75.954 243.079 37.14 426.015a3.102 3.102 0 002.392 3.687c.282.059.571.079.847.059z" fill="#a8d3f1" fill-rule="nonzero"/><path d="M246.64 1025.492c51.368-20.478 33.649-48.542 24.198-50.02-9.444-1.466 125.713-97.965 50.882-114.211 0 0 83.67-78.86 49.902-113.107-36.127-36.666-99.686 50.047-107.297 93.403 0 0-63.132-42.732-40.097 103.913 0 0-54.312-23.147-11.875 85.727l34.287-5.705z" fill="#fff"/><path d="M153.86 1034.95s-84.11-85.596-32.48-80.936c0 0-128.17-114.573-54.522-120.843 0 0-108.368-97.491-49.18-134.814 58.756-37.035 87.831 117.53 87.831 117.53s70.217-55.167 53.09 122.873c0 0 49.942-23.47 13.02 93.489l-17.759 2.7z" fill="#a8d3f1"/><path d="M222.191 1053.917a3.12 3.12 0 002.866-2.557c.072-.433 7.998-44.243 25.756-98.385 16.338-49.83 44.572-118.864 86.312-164.764a3.102 3.102 0 00-.21-4.39 3.102 3.102 0 00-4.39.21c-42.503 46.722-71.124 116.656-87.66 167.09-17.87 54.543-25.861 98.708-25.94 99.142a3.117 3.117 0 002.517 3.615c.25.046.506.059.75.039z" fill="#a8d3f1" fill-rule="nonzero"/><path d="M162.76 1045.13a3.134 3.134 0 002.917-3.135c-.335-39.098-21.03-102.066-61.502-187.155-30.055-63.192-60.411-115.677-60.72-116.203a3.112 3.112 0 00-4.253-1.13 3.127 3.127 0 00-1.137 4.259c1.21 2.076 120.613 209.007 121.382 300.282a3.114 3.114 0 003.141 3.089c.06-.007.112-.007.171-.007z" fill="#79b0dd" fill-rule="nonzero"/><path d="M1815.276 1041.936c0-16.319-380.081-29.535-848.926-29.535-468.851 0-848.932 13.216-848.932 29.535 0 16.305 380.08 29.529 848.932 29.529 468.845 0 848.926-13.224 848.926-29.53z" fill="#9ac9ec" fill-rule="nonzero"/><path d="M775.968 574.721c0 14.78-11.975 26.762-26.755 26.762-14.781 0-26.769-11.981-26.769-26.762 0-14.78 11.988-26.762 26.769-26.762 14.78 0 26.755 11.981 26.755 26.762zM1908.167 534.92c0 14.78-11.981 26.762-26.762 26.762-14.78 0-26.762-11.981-26.762-26.762 0-14.78 11.981-26.762 26.762-26.762s26.762 11.981 26.762 26.762z" fill="#fff"/><path d="M1870.456 341.856c0 14.781-11.981 26.762-26.768 26.762-14.781 0-26.762-11.98-26.762-26.762 0-14.78 11.98-26.762 26.762-26.762 14.787 0 26.768 11.982 26.768 26.762zM472.8 79.693c0 14.78-11.98 26.762-26.761 26.762-14.78 0-26.769-11.981-26.769-26.762s11.988-26.769 26.769-26.769c14.78 0 26.762 11.988 26.762 26.769zM695.755 368.342c0 14.787-11.981 26.769-26.762 26.769-14.788 0-26.769-11.982-26.769-26.769 0-14.78 11.981-26.762 26.769-26.762 14.78 0 26.762 11.981 26.762 26.762zM334.983 657.083c0 8.485-6.875 15.36-15.366 15.36-8.485 0-15.36-6.875-15.36-15.36 0-8.49 6.875-15.365 15.36-15.365 8.491 0 15.366 6.874 15.366 15.365z" fill="#a8d3f1"/><path d="M1859.053 759.675c0 8.491-6.874 15.366-15.365 15.366-8.485 0-15.36-6.875-15.36-15.366 0-8.485 6.875-15.353 15.36-15.353 8.49 0 15.365 6.868 15.365 15.353zM987.854 918.307c0 8.485-6.88 15.366-15.365 15.366s-15.366-6.881-15.366-15.366 6.881-15.366 15.366-15.366c8.484 0 15.365 6.881 15.365 15.366zM402.78 393.822c.139.152.297.283.448.428-.25.354-.532.67-.77 1.031l-.295-.177c.21-.42.408-.848.618-1.282zM55.233 500.7h590.331s-4.541-19.06-25.138-30.272c-26.138-14.222-57.947-4.646-59.406-4.193-2.471-4.357-7.098-7.328-12.468-7.328-2.484 0-4.784.684-6.828 1.795 0-.013.007-.027.007-.04 0-16.286-13.204-29.489-29.49-29.489-8.024 0-15.287 3.214-20.603 8.412-2.274-4.955-7.243-8.412-13.046-8.412-.822 0-1.617.112-2.399.243a41.432 41.432 0 002.083-12.934c0-22.89-18.56-41.45-41.463-41.45-3.602 0-7.085.506-10.424 1.373-2.142-5.251-7.282-8.964-13.302-8.964-1.327 0-2.596.243-3.812.578.158-1.912.296-3.832.296-5.783 0-37.836-30.679-68.515-68.528-68.515-37.842 0-68.521 30.679-68.521 68.515 0 1.65.138 3.266.25 4.883-4.404-1.597-9.136-2.51-14.098-2.51-6.559 0-12.737 1.563-18.244 4.271-10.581-14.242-27.472-23.515-46.577-23.515-32.052 0-58.032 25.986-58.032 58.032 0 4.594.585 9.037 1.59 13.328-15.411 1.808-27.373 14.893-27.373 30.797 0 1.814.184 3.589.487 5.324-.165-.007-.322-.053-.487-.053-7.946 0-14.386 6.434-14.386 14.38 0 .06.013.112.013.171-4.666-.355-9.51-.27-14.446.559-28.43 4.765-25.986 30.797-25.986 30.797z" fill="#fff"/><path fill="#21334f" fill-rule="nonzero" d="M1051.63 131.856h542.684v700.625H1051.63z"/><path d="M1589.398 160.76h-532.851c-7.986 0-14.453-6.473-14.453-14.458 0-7.979 6.467-14.446 14.453-14.446h532.85c7.986 0 14.46 6.467 14.46 14.446 0 7.985-6.474 14.458-14.46 14.458zM1058.301 832.481h529.355v85.826H1058.3z" fill="#5f8caa" fill-rule="nonzero"/><path d="M1589.963 946.088H1055.98c-7.67 0-13.887-6.224-13.887-13.894s6.218-13.887 13.887-13.887h533.982c7.67 0 13.893 6.217 13.893 13.887 0 7.67-6.224 13.894-13.893 13.894z" fill="#79b0dd" fill-rule="nonzero"/><path d="M556.872 304.101l-28.43-5.84v110.812l28.43-2.765V304.101z" fill="url(#_Linear1)" transform="translate(-2593.94 -1837.84) scale(6.57216)"/><path d="M634.8 304.268l28.429-5.84V409.24l-28.429-2.764V304.268z" fill="url(#_Linear2)" transform="translate(-2593.94 -1837.84) scale(6.57216)"/><path fill="#21334f" fill-rule="nonzero" d="M867.761 122.379h11.304v728.274h-11.304zM1766.885 122.379h11.304v728.274h-11.304z"/><path fill="#f92d5e" fill-rule="nonzero" d="M1094.474 862.03h32.132v32.13h-32.132z"/><path d="M1096.479 892.156h28.122v-28.122h-28.122v28.122zm32.138 4.01h-36.154v-36.147h36.154v36.146z" fill="#fff" fill-rule="nonzero"/><path fill="#fcb735" fill-rule="nonzero" d="M1126.606 862.03h32.131v32.13h-32.131z"/><path d="M1128.617 892.156h28.116v-28.122h-28.116v28.122zm32.131 4.01h-36.147v-36.147h36.147v36.146z" fill="#fff" fill-rule="nonzero"/><path d="M1364.426 899.182h-82.901c-4.962 0-8.978-4.022-8.978-8.984v-24.212a8.973 8.973 0 018.978-8.978h82.901c4.962 0 8.984 4.016 8.984 8.978v24.212a8.984 8.984 0 01-8.984 8.984z" fill="#79b0dd" fill-rule="nonzero"/><path fill="#f92d5e" fill-rule="nonzero" d="M1496.139 862.03h32.13v32.13h-32.13z"/><path d="M1498.143 892.156h28.116v-28.122h-28.116v28.122zm32.131 4.01h-36.146v-36.147h36.146v36.146z" fill="#fff" fill-rule="nonzero"/><path fill="#fcb735" fill-rule="nonzero" d="M1528.27 862.03h32.131v32.13h-32.131z"/><path d="M1530.274 892.156h28.123v-28.122h-28.123v28.122zm32.138 4.01h-36.153v-36.147h36.153v36.146z" fill="#fff" fill-rule="nonzero"/><path d="M1174.287 1027.07h-31.093c-7.926 0-14.354-6.434-14.354-14.36v-66.622h59.8v66.622c0 7.926-6.427 14.36-14.353 14.36zM1511.682 1027.07h-31.093c-7.926 0-14.354-6.434-14.354-14.36v-66.622h59.8v66.622c0 7.926-6.427 14.36-14.353 14.36z" fill="#21334f" fill-rule="nonzero"/><path fill="url(#_Linear3)" d="M556.872 380.706h30.705v25.44h-30.705z" transform="translate(-2593.94 -1837.84) scale(6.57216)"/><path fill="url(#_Linear4)" d="M587.577 380.706h30.706v25.44h-30.706z" transform="translate(-2593.94 -1837.84) scale(6.57216)"/><path fill="url(#_Linear5)" d="M613.37 380.706h21.43v25.44h-21.43z" transform="translate(-2593.94 -1837.84) scale(6.57216)"/><path fill="url(#_Linear6)" d="M556.872 350.001h25.44v30.705h-25.44z" transform="translate(-2593.94 -1837.84) scale(6.57216)"/><path fill="url(#_Linear7)" d="M581.868 371.515h31.502v9.151h-31.502z" transform="translate(-2593.94 -1837.84) scale(6.57216)"/><path d="M571.837 636.427c3.174 4.042 9.023 4.752 13.078 1.584 4.049-3.174 4.758-9.024 1.584-13.079-3.174-4.048-9.023-4.758-13.078-1.59a9.324 9.324 0 00-1.584 13.085z" fill="#00081a" fill-rule="nonzero"/><path d="M567.716 634.252c.5-1.091 3.128-7.755 3.128-7.755l17.232 6.867-3.332 8.354-17.028-7.466zM353.253 959.58l-16.746 20.006c-2.169 2.26-1.998 5.882.381 7.913l15.951 13.644a5.444 5.444 0 005.14 1.064l1.544-.473a5.25 5.25 0 015.514 1.564c7.86 9.017 35.168 37.987 54.345 28.648 22.608-11.008-30.048-36.291-31.237-43.14-1.196-6.841-.355-8.044-.355-8.044l-34.537-21.182z" fill="#00081a" fill-rule="nonzero"/><path d="M365.865 978.699c7.644 4.843 17.574 2.865 22.194-4.417l-27.662-17.548c-4.62 7.282-2.169 17.114 5.468 21.965z" fill="#fcb2ba" fill-rule="nonzero"/><path d="M557.595 996.22l1.09 26.065a5.45 5.45 0 005.62 5.587l20.972-.658a5.442 5.442 0 004.521-2.668l.822-1.387a5.245 5.245 0 015.133-2.556c11.882 1.38 51.578 4.41 59.471-15.405 9.306-23.371-46.662-6.605-52.15-10.864-5.488-4.259-5.672-5.718-5.672-5.718l-39.807 7.604z" fill="#00081a" fill-rule="nonzero"/><path d="M579.795 1001.852c9.379-1.643 15.774-9.858 14.282-18.356l-33.952 5.948c1.485 8.491 10.292 14.051 19.67 12.408z" fill="#fcb2ba" fill-rule="nonzero"/><path d="M391.983 977.207l-35.976-22.615 78.268-133.336a26.796 26.796 0 003.352-17.778L418.048 680.04l51.158-5.12 26.17 39.275 8.248 93.608a27.192 27.192 0 01-4.87 18.073l-106.771 151.33z" fill="#37255c" fill-rule="nonzero"/><path d="M458.224 380.045c-.496 5.729 2.443 10.437 7.855 15.327 3.489 3.151 5.865 5.4 7.113 6.601a4.437 4.437 0 011.289 2.4l4.771 25.933 6.42-1.071-3.17-26.486a8.967 8.967 0 00-.616-2.356l-9.127-22.043-14.535 1.695z" fill="url(#_Linear8)" transform="translate(-2593.94 -1837.84) scale(6.57216)"/><path d="M412.87 402.544s-12.77-10.588-21.755-28.878c0 0 26.322-49.114 83.611-31.882l-61.857 60.76z" fill="#442f6e" fill-rule="nonzero"/><path d="M466.936 331.645s1.143 4.23 0 7.784c-1.141 3.553-1.522 3.679-4.441 3.49v3.743l-5.647-1.205s1.31-6.032.36-6.959c-.803-.782-1.246-2.28-.313-2.94 1.476-1.047 2.874.651 3.043 1.413l.4-2.999s5.33-2.622 6.598-2.327z" fill="url(#_Linear9)" transform="translate(-2593.94 -1837.84) scale(6.57216)"/><path d="M464.44 346.076c.139-.02.27-.046.402-.092l57.276-19.395a1.967 1.967 0 001.23-2.504 1.963 1.963 0 00-2.498-1.229l-57.27 19.395a1.967 1.967 0 00-1.242 2.497 1.987 1.987 0 002.103 1.328z" fill="#cc0a31" fill-rule="nonzero"/><path d="M466.924 331.797l-12.787 4.685s-2.204-6.15 3.363-8.542c5.568-2.392 8.883.937 9.424 3.857z" fill="url(#_Linear10)" transform="translate(-2593.94 -1837.84) scale(6.57216)"/><path d="M463.823 520.902l1.42 12.77a6.488 6.488 0 002.445 4.396l87.705 69.028a6.54 6.54 0 006.447.926l13.861-5.547a6.5 6.5 0 016.296.822l11.988 8.899a9.533 9.533 0 013.023 11.547l-3.003 6.73a6.49 6.49 0 01-6.362 3.844l-23.318-1.518a6.522 6.522 0 01-2.82-.848l-124.148-71.248a16.93 16.93 0 01-8.005-10.588l-4.982-19.927a6.498 6.498 0 014.66-7.873l26.67-6.987c3.845-1.012 7.683 1.63 8.123 5.574z" fill="#fa7782" fill-rule="nonzero"/><path d="M473.261 374.915s-2.29-20.144-6.652-25.475c-4.361-5.33-10.358-5.901-12.278-1.063-1.92 4.839 1.087 10.933 2.303 16.25 2.266 9.911.84 13.587 1.251 15.418l15.589-1.151-.213-3.979z" fill="url(#_Linear11)" transform="translate(-2593.94 -1837.84) scale(6.57216)"/><path d="M407.934 474.364l7.926 64.46h8.97l-3.39-59.077-13.506-5.383zM462.83 472.682l9.879 62.238-10.16.795-7.303-63.033h7.585z" fill="#bc2060" fill-rule="nonzero"/><path d="M463.823 527.69l1.42 12.77a6.473 6.473 0 002.445 4.39l87.705 69.028a6.524 6.524 0 006.447.927l13.861-5.54a6.498 6.498 0 016.296.814l11.988 8.899a9.535 9.535 0 013.023 11.547l-3.003 6.73a6.49 6.49 0 01-6.362 3.845l-23.318-1.518a6.522 6.522 0 01-2.82-.848l-124.148-71.249a16.896 16.896 0 01-8.005-10.588l-4.982-19.92c-.867-3.463 1.21-6.98 4.66-7.88l26.67-6.986c3.845-.999 7.683 1.63 8.123 5.58z" fill="#fcb2ba" fill-rule="nonzero"/><path d="M464.983 351.259l.992 9.216-7.481.557-1.738-9.214 8.227-.559z" fill="url(#_Linear12)" transform="translate(-2593.94 -1837.84) scale(6.57216)"/><path d="M525.823 422.47l-23.961 8.548-10.317-28.92 23.96-8.548 10.318 28.92z" fill="url(#_Linear13)" transform="translate(-2593.94 -1837.84) scale(6.57216)"/><path d="M512.029 394.664l-20.524 7.322-2.128-5.963 20.524-7.322 2.128 5.963z" fill="url(#_Linear14)" transform="translate(-2593.94 -1837.84) scale(6.57216)"/><path d="M499.583 392.393l-10.263 3.661-4.45-12.475 10.262-3.661 4.451 12.475z" fill="url(#_Linear15)" transform="translate(-2593.94 -1837.84) scale(6.57216)"/><path d="M701.959 997.646L573.848 639.187a3.574 3.574 0 012.162-4.567 3.58 3.58 0 014.561 2.162l125.739 351.82 178.414-61.35a3.571 3.571 0 012.32 6.756l-185.085 63.638z" fill="#00081a" fill-rule="nonzero"/><path d="M739.801 992.816c0 19.558-15.845 35.41-35.404 35.41-19.552 0-35.404-15.852-35.404-35.41 0-19.553 15.852-35.405 35.404-35.405 19.559 0 35.404 15.852 35.404 35.405z" fill="#00081a" fill-rule="nonzero"/><path d="M716.76 993.131c0 6.822-5.534 12.362-12.363 12.362-6.828 0-12.369-5.54-12.369-12.362 0-6.828 5.54-12.369 12.37-12.369 6.828 0 12.361 5.54 12.361 12.37z" fill="#fdbe42" fill-rule="nonzero"/><path d="M568.899 643.729c3.174 4.048 9.03 4.758 13.078 1.59 4.042-3.168 4.759-9.023 1.584-13.072-3.167-4.048-9.023-4.765-13.072-1.59-4.048 3.168-4.758 9.023-1.59 13.072z" fill="#30353d" fill-rule="nonzero"/><defs><linearGradient id="_Linear8" x1="0" y1="0" x2="1" y2="0" gradientUnits="userSpaceOnUse" gradientTransform="rotate(77.512 -2.794 481.05) scale(46.01507)"><stop offset="0" stop-color="#462f70"/><stop offset="1" stop-color="#382a5e"/></linearGradient><linearGradient id="_Linear1" x1="0" y1="0" x2="1" y2="0" gradientUnits="userSpaceOnUse" gradientTransform="rotate(-174.413 285.975 164.581) scale(27.87222)"><stop offset="0" stop-color="#97cae8"/><stop offset="1" stop-color="#c1e1e8"/></linearGradient><linearGradient id="_Linear3" x1="0" y1="0" x2="1" y2="0" gradientUnits="userSpaceOnUse" gradientTransform="translate(556.872 393.426) scale(30.7053)"><stop offset="0" stop-color="#f4b072"/><stop offset="1" stop-color="#e2995b"/></linearGradient><linearGradient id="_Linear4" x1="0" y1="0" x2="1" y2="0" gradientUnits="userSpaceOnUse" gradientTransform="translate(587.577 393.426) scale(30.7053)"><stop offset="0" stop-color="#df9e4f"/><stop offset="1" stop-color="#cd8a3a"/></linearGradient><linearGradient id="_Linear5" x1="0" y1="0" x2="1" y2="0" gradientUnits="userSpaceOnUse" gradientTransform="translate(613.37 393.426) scale(21.43)"><stop offset="0" stop-color="#f4b072"/><stop offset="1" stop-color="#e2995b"/></linearGradient><linearGradient id="_Linear6" x1="0" y1="0" x2="1" y2="0" gradientUnits="userSpaceOnUse" gradientTransform="translate(556.872 365.354) scale(25.4398)"><stop offset="0" stop-color="#df9e4f"/><stop offset="1" stop-color="#cd8a3a"/></linearGradient><linearGradient id="_Linear7" x1="0" y1="0" x2="1" y2="0" gradientUnits="userSpaceOnUse" gradientTransform="translate(581.868 376.09) scale(31.5018)"><stop offset="0" stop-color="#f4b072"/><stop offset="1" stop-color="#e2995b"/></linearGradient><linearGradient id="_Linear2" x1="0" y1="0" x2="1" y2="0" gradientUnits="userSpaceOnUse" gradientTransform="scale(29.10252) rotate(-5.947 128.889 -204.452)"><stop offset="0" stop-color="#97cae8"/><stop offset="1" stop-color="#c1e1e8"/></linearGradient><linearGradient id="_Linear9" x1="0" y1="0" x2="1" y2="0" gradientUnits="userSpaceOnUse" gradientTransform="rotate(140.807 174.052 250.63) scale(12.64406)"><stop offset="0" stop-color="#fdd6db"/><stop offset="1" stop-color="#fbacaf"/></linearGradient><linearGradient id="_Linear10" x1="0" y1="0" x2="1" y2="0" gradientUnits="userSpaceOnUse" gradientTransform="scale(-13.897 13.897) rotate(-40.285 15.418 57.363)"><stop offset="0" stop-color="#ff5b95"/><stop offset="1" stop-color="#da3362"/></linearGradient><linearGradient id="_Linear11" x1="0" y1="0" x2="1" y2="0" gradientUnits="userSpaceOnUse" gradientTransform="scale(-19.7375) rotate(-55.582 -28.923 13.66)"><stop offset="0" stop-color="#ff5b95"/><stop offset="1" stop-color="#da3362"/></linearGradient><linearGradient id="_Linear12" x1="0" y1="0" x2="1" y2="0" gradientUnits="userSpaceOnUse" gradientTransform="scale(-19.7375) rotate(-55.582 -28.622 13.502)"><stop offset="0" stop-color="#ff5b95"/><stop offset="1" stop-color="#da3362"/></linearGradient><linearGradient id="_Linear13" x1="0" y1="0" x2="1" y2="0" gradientUnits="userSpaceOnUse" gradientTransform="translate(491.544 412.284) scale(34.2785)"><stop offset="0" stop-color="#f4b072"/><stop offset="1" stop-color="#e2995b"/></linearGradient><linearGradient id="_Linear14" x1="0" y1="0" x2="1" y2="0" gradientUnits="userSpaceOnUse" gradientTransform="translate(489.377 395.344) scale(22.6519)"><stop offset="0" stop-color="#df9e4f"/><stop offset="1" stop-color="#cd8a3a"/></linearGradient><linearGradient id="_Linear15" x1="0" y1="0" x2="1" y2="0" gradientUnits="userSpaceOnUse" gradientTransform="translate(484.87 387.986) scale(14.7129)"><stop offset="0" stop-color="#f4b072"/><stop offset="1" stop-color="#e2995b"/></linearGradient></defs></svg>