<svg viewBox="0 0 1080 1080" xmlns="http://www.w3.org/2000/svg" fill-rule="evenodd" clip-rule="evenodd" stroke-linejoin="round" stroke-miterlimit="2"><g transform="translate(-.001 -.001) scale(2.10938)"><g fill="#33bbe9" fill-rule="nonzero" id="company"><path d="M277.973 39.893L43.52 4.267c-10.88-1.707-21.973 1.28-30.293 8.32C4.907 19.84 0 30.293 0 41.173v449.494C0 502.4 9.6 512 21.333 512h69.334V400A37.238 37.238 0 01128 362.667h53.333A37.238 37.238 0 01218.667 400v112h90.666V76.8c0-18.347-13.226-33.92-31.36-36.907zm-160.64 274.774h-32c-8.832 0-16-7.168-16-16s7.168-16 16-16h32c8.832 0 16 7.168 16 16s-7.168 16-16 16zm0-64h-32c-8.832 0-16-7.168-16-16s7.168-16 16-16h32c8.832 0 16 7.168 16 16s-7.168 16-16 16zm0-64h-32c-8.832 0-16-7.168-16-16s7.168-16 16-16h32c8.832 0 16 7.168 16 16s-7.168 16-16 16zm0-64h-32c-8.832 0-16-7.168-16-16s7.168-16 16-16h32c8.832 0 16 7.168 16 16s-7.168 16-16 16zm106.667 192h-32c-8.832 0-16-7.168-16-16s7.168-16 16-16h32c8.832 0 16 7.168 16 16s-7.168 16-16 16zm0-64h-32c-8.832 0-16-7.168-16-16s7.168-16 16-16h32c8.832 0 16 7.168 16 16s-7.168 16-16 16zm0-64h-32c-8.832 0-16-7.168-16-16s7.168-16 16-16h32c8.832 0 16 7.168 16 16s-7.168 16-16 16zm0-64h-32c-8.832 0-16-7.168-16-16s7.168-16 16-16h32c8.832 0 16 7.168 16 16s-7.168 16-16 16zM482.56 231.296l-151.893-31.808V512h144C495.253 512 512 495.253 512 474.667V267.776c0-17.621-12.011-32.619-29.44-36.48zM432 448h-32c-8.832 0-16-7.168-16-16s7.168-16 16-16h32c8.832 0 16 7.168 16 16s-7.168 16-16 16zm0-64h-32c-8.832 0-16-7.168-16-16s7.168-16 16-16h32c8.832 0 16 7.168 16 16s-7.168 16-16 16zm0-64h-32c-8.832 0-16-7.168-16-16s7.168-16 16-16h32c8.832 0 16 7.168 16 16s-7.168 16-16 16z"/></g></g></svg>