<svg viewBox="0 0 512 512" xmlns="http://www.w3.org/2000/svg" fill-rule="evenodd" clip-rule="evenodd" stroke-linejoin="round" stroke-miterlimit="2"><path d="M347.74 215.041c14.33 2.744 28.508-5.42 33.329-19.191l25.156-71.859c2.23-6.37-4.662-12.081-10.507-8.706l-18.836 10.874-49.656-86.009a34.265 34.265 0 00-29.673-17.132H221.13a34.263 34.263 0 00-29.673 17.132l-53.294 92.309c-4.691 8.125-1.907 18.515 6.218 23.207l57.612 33.262c8.127 4.692 18.519 1.906 23.209-6.222l34.126-59.148 30.515 52.855-18.895 10.909c-5.838 3.371-4.351 12.181 2.27 13.449l74.522 14.27zM507.539 375.281a34.262 34.262 0 00-.262-34.266l-53.978-91.854c-4.751-8.09-15.161-10.797-23.252-6.046l-57.365 33.688c-8.092 4.752-10.798 15.165-6.043 23.256l34.598 58.873-61.03.452-.162-21.818c-.05-6.741-8.447-9.796-12.817-4.664l-49.193 57.771c-9.459 11.109-9.357 27.469.24 38.459l50.079 57.345c4.44 5.084 12.808 1.909 12.758-4.841l-.161-21.748 99.309-.736a34.264 34.264 0 0029.549-17.357l37.73-66.514zM179.057 359.766l-68.286-.277 30.746-52.721 18.847 10.991c5.823 3.396 12.735-2.268 10.55-8.645l-24.592-71.781c-4.729-13.803-18.853-22.061-33.201-19.413l-74.869 13.818c-6.637 1.225-8.176 10.042-2.345 13.442l18.787 10.956-50.029 85.788a34.265 34.265 0 00-.146 34.269l37.96 66.385a34.264 34.264 0 0029.605 17.255l106.54.433c9.383.041 17.021-7.532 17.062-16.914l.289-66.525c.042-9.384-7.534-17.023-16.918-17.061z" fill="#5fc4b4" fill-rule="nonzero"/></svg>