<svg viewBox="0 0 1080 1080" xmlns="http://www.w3.org/2000/svg" fill-rule="evenodd" clip-rule="evenodd" stroke-linejoin="round" stroke-miterlimit="2"><path d="M5.185 367.68l39.651-39.651a52.642 52.642 0 0137.495-15.539h45.714a17.68 17.68 0 0012.498-5.162l14.637-14.654c6.908-6.9 6.915-18.094.014-25.001l-12.512-12.512c-6.9-6.903-6.9-18.093 0-24.996l124.61-124.522a17.64 17.64 0 012.687-2.192 337.861 337.861 0 01175.275-56.798l246.78-9.14c9.757-.366 17.963 7.244 18.33 17a17.678 17.678 0 01-10.48 16.818L466.538 175.488a266.245 266.245 0 00-61.289 42.427l62.35 62.349c6.9 6.903 6.9 18.093 0 24.996l587.589 587.448c33.912 35.112 32.94 91.069-2.172 124.981-34.253 33.082-88.557 33.082-122.81 0l-587.518-587.5c-6.903 6.9-18.093 6.9-24.996 0l-37.513-37.495c-6.991-6.684-18.004-6.684-24.996 0l-14.637 14.637a17.546 17.546 0 00-5.18 12.498v45.715a52.61 52.61 0 01-15.538 37.494l-39.634 39.651c-6.898 6.908-18.093 6.915-25 .014L5.185 392.694c-6.908-6.899-6.914-18.093-.013-25a.038.038 0 01.013-.014zM998.932 45.647c-4.377-4.375-11.337-4.97-16.393-1.403l-104.697 73.88a12.82 12.82 0 00-4 4.603l-26.4 51.422 58.41 58.398 51.42-26.4a12.815 12.815 0 004.603-3.998l73.876-104.697c3.566-5.058 2.97-12.016-1.405-16.393l-35.414-35.412z" fill="#ee367a" fill-rule="nonzero"/><circle cx="540.373" cy="765" r="46.291" fill="#ee367a" transform="rotate(45 1320.804 91.05) scale(2.00999)"/><circle cx="540.373" cy="765" r="46.291" fill="#ee367a" transform="rotate(45 1676.95 238.572) scale(2.00999)"/><path fill="#ee367a" d="M852.648 168.94l58.402 58.402-482.264 482.264-58.402-58.402zM276.324 672.12l131.551 131.552L199.247 1012.3 67.696 880.75z"/></svg>