<svg viewBox="0 0 2000 1916" xmlns="http://www.w3.org/2000/svg" fill-rule="evenodd" clip-rule="evenodd" stroke-linejoin="round" stroke-miterlimit="2"><g transform="translate(-384.761 -302.418) scale(4.1226)"><g id="poc-logo"><g id="pie"><path d="M33.268 110.303c-.199 20.824 8.063 39.758 21.58 53.535 13.517 13.777 32.29 22.398 53.115 22.596l.718-75.413-75.413-.718z" fill="#ee367a" fill-rule="nonzero" transform="translate(23.071 29.86) scale(2.72583)"/><path d="M50.616 51.84C35.47 66.7 25.994 87.338 25.775 110.232l82.906.789.79-82.905c-22.894-.218-43.709 8.864-58.855 23.724z" fill="#33bbe9" fill-rule="nonzero" transform="translate(23.071 29.86) scale(2.72583)"/><path d="M176.543 44.441c-17.04-17.367-40.705-28.235-66.957-28.484l-.905 95.064 95.065.905c.25-26.251-10.164-50.118-27.203-67.485z" fill="#fbc010" fill-rule="nonzero" transform="translate(23.071 29.86) scale(2.72583)"/><path d="M108.681 111.021l-.645 67.798c18.721.179 35.743-7.249 48.129-19.401 12.386-12.152 20.136-29.029 20.314-47.751l-67.798-.646z" fill="#5fc4b4" fill-rule="nonzero" transform="translate(23.071 29.86) scale(2.72583)"/><path d="M486.404 166.392l-17.944-17.944a23.823 23.823 0 00-16.968-7.032h-20.688a8 8 0 01-5.656-2.336l-6.624-6.632a8 8 0 01-.006-11.314l5.662-5.662a8 8 0 000-11.312l-56.392-56.352a7.983 7.983 0 00-1.216-.992 152.898 152.898 0 00-79.32-25.704l-111.68-4.136a8 8 0 00-3.552 15.304l105.6 47.136a120.488 120.488 0 0127.736 19.2l-28.216 28.216a8 8 0 000 11.312L11.228 403.992c-15.347 15.89-14.907 41.213.983 56.56 15.501 14.971 40.076 14.971 55.577 0l265.88-265.872a8 8 0 0011.312 0l16.976-16.968a8.185 8.185 0 0111.312 0l6.624 6.624a7.94 7.94 0 012.344 5.656v20.688a23.809 23.809 0 007.032 16.968l17.936 17.944a8 8 0 0011.314.006l67.886-67.886a8 8 0 000-11.32z" fill="#cf236a" fill-rule="nonzero" transform="matrix(-.18738 0 0 .18738 287.943 359.304)"/><path d="M472.236 21.757a6.019 6.019 0 00-7.7-.659L415.359 55.8a6.022 6.022 0 00-1.879 2.162l-12.4 24.153 27.436 27.43 24.152-12.4a6.02 6.02 0 002.162-1.878l34.7-49.177a6.02 6.02 0 00-.66-7.7l-16.634-16.633z" fill="#cf236a" fill-rule="nonzero" transform="matrix(.18054 0 0 .18054 195.81 359.247)"/><circle cx="540.373" cy="765" r="46.291" fill="#cf236a" transform="rotate(45.001 -223.53 424.403) scale(.17045)"/><circle cx="540.373" cy="765" r="46.291" fill="#cf236a" transform="rotate(45.001 -193.329 436.913) scale(.17045)"/><path fill="#cf236a" d="M518.404 446.215h41.091v18.499h-41.091z" transform="rotate(45.001 1411.511 1101.98) scale(.17045 3.12641)"/><path fill="#cf236a" d="M518.404 446.215h41.091v18.499h-41.091z" transform="rotate(45 435.398 534.957) scale(.38394 1.35249)"/><g id="company"><g transform="matrix(.17888 0 0 .17888 187.729 198.939)"><clipPath id="_clip1"><path d="M0 0h512v512H0z"/></clipPath><g clip-path="url(#_clip1)" fill="#1591b2" fill-rule="nonzero"><path d="M277.973 39.893L43.52 4.267c-10.88-1.707-21.973 1.28-30.293 8.32C4.907 19.84 0 30.293 0 41.173v449.494C0 502.4 9.6 512 21.333 512h69.334V400A37.238 37.238 0 01128 362.667h53.333A37.238 37.238 0 01218.667 400v112h90.666V76.8c0-18.347-13.226-33.92-31.36-36.907zm-160.64 274.774h-32c-8.832 0-16-7.168-16-16s7.168-16 16-16h32c8.832 0 16 7.168 16 16s-7.168 16-16 16zm0-64h-32c-8.832 0-16-7.168-16-16s7.168-16 16-16h32c8.832 0 16 7.168 16 16s-7.168 16-16 16zm0-64h-32c-8.832 0-16-7.168-16-16s7.168-16 16-16h32c8.832 0 16 7.168 16 16s-7.168 16-16 16zm0-64h-32c-8.832 0-16-7.168-16-16s7.168-16 16-16h32c8.832 0 16 7.168 16 16s-7.168 16-16 16zm106.667 192h-32c-8.832 0-16-7.168-16-16s7.168-16 16-16h32c8.832 0 16 7.168 16 16s-7.168 16-16 16zm0-64h-32c-8.832 0-16-7.168-16-16s7.168-16 16-16h32c8.832 0 16 7.168 16 16s-7.168 16-16 16zm0-64h-32c-8.832 0-16-7.168-16-16s7.168-16 16-16h32c8.832 0 16 7.168 16 16s-7.168 16-16 16zm0-64h-32c-8.832 0-16-7.168-16-16s7.168-16 16-16h32c8.832 0 16 7.168 16 16s-7.168 16-16 16zM482.56 231.296l-151.893-31.808V512h144C495.253 512 512 495.253 512 474.667V267.776c0-17.621-12.011-32.619-29.44-36.48zM432 448h-32c-8.832 0-16-7.168-16-16s7.168-16 16-16h32c8.832 0 16 7.168 16 16s-7.168 16-16 16zm0-64h-32c-8.832 0-16-7.168-16-16s7.168-16 16-16h32c8.832 0 16 7.168 16 16s-7.168 16-16 16zm0-64h-32c-8.832 0-16-7.168-16-16s7.168-16 16-16h32c8.832 0 16 7.168 16 16s-7.168 16-16 16z"/></g></g></g><g id="home-run"><g transform="translate(369.317 193.363) scale(.17888)"><clipPath id="_clip2"><path d="M0 0h512.001v512.001H0z"/></clipPath><g clip-path="url(#_clip2)"><path d="M503.402 228.885L273.684 19.567c-10.083-9.189-25.288-9.188-35.367-.001L8.598 228.886c-8.077 7.36-10.745 18.7-6.799 28.889 3.947 10.189 13.557 16.772 24.484 16.772h36.69v209.721c0 8.315 6.742 15.057 15.057 15.057h125.914c8.315 0 15.057-6.741 15.057-15.057V356.932h74.002v127.337c0 8.315 6.742 15.057 15.057 15.057h125.908c8.315 0 15.057-6.741 15.057-15.057V274.547h36.697c10.926 0 20.537-6.584 24.484-16.772 3.941-10.19 1.273-21.529-6.804-28.89zM445.092 42.73H343.973l116.176 105.636v-90.58c0-8.315-6.741-15.056-15.057-15.056z" fill="#f57f1f" fill-rule="nonzero"/></g></g></g><g id="recycling-symbol"><g transform="matrix(.17888 0 0 .17888 339.253 352.484)"><clipPath id="_clip3"><path d="M0 0h512v512H0z"/></clipPath><g clip-path="url(#_clip3)" fill="#13a187" fill-rule="nonzero"><path d="M347.74 215.041c14.33 2.744 28.508-5.42 33.329-19.191l25.156-71.859c2.23-6.37-4.662-12.081-10.507-8.706l-18.836 10.874-49.656-86.009a34.265 34.265 0 00-29.673-17.132H221.13a34.263 34.263 0 00-29.673 17.132l-53.294 92.309c-4.691 8.125-1.907 18.515 6.218 23.207l57.612 33.262c8.127 4.692 18.519 1.906 23.209-6.222l34.126-59.148 30.515 52.855-18.895 10.909c-5.838 3.371-4.351 12.181 2.27 13.449l74.522 14.27zM507.539 375.281a34.262 34.262 0 00-.262-34.266l-53.978-91.854c-4.751-8.09-15.161-10.797-23.252-6.046l-57.365 33.688c-8.092 4.752-10.798 15.165-6.043 23.256l34.598 58.873-61.03.452-.162-21.818c-.05-6.741-8.447-9.796-12.817-4.664l-49.193 57.771c-9.459 11.109-9.357 27.469.24 38.459l50.079 57.345c4.44 5.084 12.808 1.909 12.758-4.841l-.161-21.748 99.309-.736a34.264 34.264 0 0029.549-17.357l37.73-66.514zM179.057 359.766l-68.286-.277 30.746-52.721 18.847 10.991c5.823 3.396 12.735-2.268 10.55-8.645l-24.592-71.781c-4.729-13.803-18.853-22.061-33.201-19.413l-74.869 13.818c-6.637 1.225-8.176 10.042-2.345 13.442l18.787 10.956-50.029 85.788a34.265 34.265 0 00-.146 34.269l37.96 66.385a34.264 34.264 0 0029.605 17.255l106.54.433c9.383.041 17.021-7.532 17.062-16.914l.289-66.525c.042-9.384-7.534-17.023-16.918-17.061z"/></g></g></g></g></g></g></svg>