<svg viewBox="0 0 3000 1596" xmlns="http://www.w3.org/2000/svg" fill-rule="evenodd" clip-rule="evenodd" stroke-linejoin="round" stroke-miterlimit="2"><g transform="translate(0 -.002)"><g id="poc-logo" transform="translate(-3651.8 -4327.13) scale(3.43453)"><g id="pie" transform="translate(969.929 1186.53)"><path d="M33.268 110.303c-.199 20.824 8.063 39.758 21.58 53.535 13.517 13.777 32.29 22.398 53.115 22.596l.718-75.413-75.413-.718z" fill="#ee367a" fill-rule="nonzero" transform="translate(23.071 29.86) scale(2.72583)"/><path d="M50.616 51.84C35.47 66.7 25.994 87.338 25.775 110.232l82.906.789.79-82.905c-22.894-.218-43.709 8.864-58.855 23.724z" fill="#33bbe9" fill-rule="nonzero" transform="translate(23.071 29.86) scale(2.72583)"/><path d="M176.543 44.441c-17.04-17.367-40.705-28.235-66.957-28.484l-.905 95.064 95.065.905c.25-26.251-10.164-50.118-27.203-67.485z" fill="#fbc010" fill-rule="nonzero" transform="translate(23.071 29.86) scale(2.72583)"/><path d="M108.681 111.021l-.645 67.798c18.721.179 35.743-7.249 48.129-19.401 12.386-12.152 20.136-29.029 20.314-47.751l-67.798-.646z" fill="#5fc4b4" fill-rule="nonzero" transform="translate(23.071 29.86) scale(2.72583)"/><path d="M486.404 166.392l-17.944-17.944a23.823 23.823 0 00-16.968-7.032h-20.688a8 8 0 01-5.656-2.336l-6.624-6.632a8 8 0 01-.006-11.314l5.662-5.662a8 8 0 000-11.312l-56.392-56.352a7.983 7.983 0 00-1.216-.992 152.898 152.898 0 00-79.32-25.704l-111.68-4.136a8 8 0 00-3.552 15.304l105.6 47.136a120.488 120.488 0 0127.736 19.2l-28.216 28.216a8 8 0 000 11.312L11.228 403.992c-15.347 15.89-14.907 41.213.983 56.56 15.501 14.971 40.076 14.971 55.577 0l265.88-265.872a8 8 0 0011.312 0l16.976-16.968a8.185 8.185 0 0111.312 0l6.624 6.624a7.94 7.94 0 012.344 5.656v20.688a23.809 23.809 0 007.032 16.968l17.936 17.944a8 8 0 0011.314.006l67.886-67.886a8 8 0 000-11.32z" fill="#cf236a" fill-rule="nonzero" transform="matrix(-.18738 0 0 .18738 287.943 359.304)"/><path d="M472.236 21.757a6.019 6.019 0 00-7.7-.659L415.359 55.8a6.022 6.022 0 00-1.879 2.162l-12.4 24.153 27.436 27.43 24.152-12.4a6.02 6.02 0 002.162-1.878l34.7-49.177a6.02 6.02 0 00-.66-7.7l-16.634-16.633z" fill="#cf236a" fill-rule="nonzero" transform="matrix(.18054 0 0 .18054 195.81 359.247)"/><circle cx="540.373" cy="765" r="46.291" fill="#cf236a" transform="rotate(45.001 -223.53 424.403) scale(.17045)"/><circle cx="540.373" cy="765" r="46.291" fill="#cf236a" transform="rotate(45.001 -193.329 436.913) scale(.17045)"/><path fill="#cf236a" d="M518.404 446.215h41.091v18.499h-41.091z" transform="rotate(45.001 1411.511 1101.98) scale(.17045 3.12641)"/><path fill="#cf236a" d="M518.404 446.215h41.091v18.499h-41.091z" transform="rotate(45 435.398 534.957) scale(.38394 1.35249)"/><g id="company"><g transform="matrix(.17888 0 0 .17888 187.729 198.939)"><clipPath id="_clip1"><path d="M0 0h512v512H0z"/></clipPath><g clip-path="url(#_clip1)" fill="#1591b2" fill-rule="nonzero"><path d="M277.973 39.893L43.52 4.267c-10.88-1.707-21.973 1.28-30.293 8.32C4.907 19.84 0 30.293 0 41.173v449.494C0 502.4 9.6 512 21.333 512h69.334V400A37.238 37.238 0 01128 362.667h53.333A37.238 37.238 0 01218.667 400v112h90.666V76.8c0-18.347-13.226-33.92-31.36-36.907zm-160.64 274.774h-32c-8.832 0-16-7.168-16-16s7.168-16 16-16h32c8.832 0 16 7.168 16 16s-7.168 16-16 16zm0-64h-32c-8.832 0-16-7.168-16-16s7.168-16 16-16h32c8.832 0 16 7.168 16 16s-7.168 16-16 16zm0-64h-32c-8.832 0-16-7.168-16-16s7.168-16 16-16h32c8.832 0 16 7.168 16 16s-7.168 16-16 16zm0-64h-32c-8.832 0-16-7.168-16-16s7.168-16 16-16h32c8.832 0 16 7.168 16 16s-7.168 16-16 16zm106.667 192h-32c-8.832 0-16-7.168-16-16s7.168-16 16-16h32c8.832 0 16 7.168 16 16s-7.168 16-16 16zm0-64h-32c-8.832 0-16-7.168-16-16s7.168-16 16-16h32c8.832 0 16 7.168 16 16s-7.168 16-16 16zm0-64h-32c-8.832 0-16-7.168-16-16s7.168-16 16-16h32c8.832 0 16 7.168 16 16s-7.168 16-16 16zm0-64h-32c-8.832 0-16-7.168-16-16s7.168-16 16-16h32c8.832 0 16 7.168 16 16s-7.168 16-16 16zM482.56 231.296l-151.893-31.808V512h144C495.253 512 512 495.253 512 474.667V267.776c0-17.621-12.011-32.619-29.44-36.48zM432 448h-32c-8.832 0-16-7.168-16-16s7.168-16 16-16h32c8.832 0 16 7.168 16 16s-7.168 16-16 16zm0-64h-32c-8.832 0-16-7.168-16-16s7.168-16 16-16h32c8.832 0 16 7.168 16 16s-7.168 16-16 16zm0-64h-32c-8.832 0-16-7.168-16-16s7.168-16 16-16h32c8.832 0 16 7.168 16 16s-7.168 16-16 16z"/></g></g></g><g id="home-run"><g transform="translate(369.317 193.363) scale(.17888)"><clipPath id="_clip2"><path d="M0 0h512.001v512.001H0z"/></clipPath><g clip-path="url(#_clip2)"><path d="M503.402 228.885L273.684 19.567c-10.083-9.189-25.288-9.188-35.367-.001L8.598 228.886c-8.077 7.36-10.745 18.7-6.799 28.889 3.947 10.189 13.557 16.772 24.484 16.772h36.69v209.721c0 8.315 6.742 15.057 15.057 15.057h125.914c8.315 0 15.057-6.741 15.057-15.057V356.932h74.002v127.337c0 8.315 6.742 15.057 15.057 15.057h125.908c8.315 0 15.057-6.741 15.057-15.057V274.547h36.697c10.926 0 20.537-6.584 24.484-16.772 3.941-10.19 1.273-21.529-6.804-28.89zM445.092 42.73H343.973l116.176 105.636v-90.58c0-8.315-6.741-15.056-15.057-15.056z" fill="#f57f1f" fill-rule="nonzero"/></g></g></g><g id="recycling-symbol"><g transform="matrix(.17888 0 0 .17888 339.253 352.484)"><clipPath id="_clip3"><path d="M0 0h512v512H0z"/></clipPath><g clip-path="url(#_clip3)" fill="#13a187" fill-rule="nonzero"><path d="M347.74 215.041c14.33 2.744 28.508-5.42 33.329-19.191l25.156-71.859c2.23-6.37-4.662-12.081-10.507-8.706l-18.836 10.874-49.656-86.009a34.265 34.265 0 00-29.673-17.132H221.13a34.263 34.263 0 00-29.673 17.132l-53.294 92.309c-4.691 8.125-1.907 18.515 6.218 23.207l57.612 33.262c8.127 4.692 18.519 1.906 23.209-6.222l34.126-59.148 30.515 52.855-18.895 10.909c-5.838 3.371-4.351 12.181 2.27 13.449l74.522 14.27zM507.539 375.281a34.262 34.262 0 00-.262-34.266l-53.978-91.854c-4.751-8.09-15.161-10.797-23.252-6.046l-57.365 33.688c-8.092 4.752-10.798 15.165-6.043 23.256l34.598 58.873-61.03.452-.162-21.818c-.05-6.741-8.447-9.796-12.817-4.664l-49.193 57.771c-9.459 11.109-9.357 27.469.24 38.459l50.079 57.345c4.44 5.084 12.808 1.909 12.758-4.841l-.161-21.748 99.309-.736a34.264 34.264 0 0029.549-17.357l37.73-66.514zM179.057 359.766l-68.286-.277 30.746-52.721 18.847 10.991c5.823 3.396 12.735-2.268 10.55-8.645l-24.592-71.781c-4.729-13.803-18.853-22.061-33.201-19.413l-74.869 13.818c-6.637 1.225-8.176 10.042-2.345 13.442l18.787 10.956-50.029 85.788a34.265 34.265 0 00-.146 34.269l37.96 66.385a34.264 34.264 0 0029.605 17.255l106.54.433c9.383.041 17.021-7.532 17.062-16.914l.289-66.525c.042-9.384-7.534-17.023-16.918-17.061z"/></g></g></g></g><g id="grey"><path d="M.269-.376c0 .03-.008.076-.025.138a.576.576 0 00-.025.12c0 .019.004.028.011.028A.138.138 0 00.27-.1l.009-.004.018.05a.368.368 0 01-.084.046.264.264 0 01-.092.02.088.088 0 01-.064-.023C.041-.026.033-.049.033-.078c0-.029.008-.073.025-.133a.606.606 0 00.024-.113.113.113 0 00-.026-.07L.048-.405l.003-.017a.806.806 0 01.202-.016c.011.012.016.033.016.062zm-.074-.14A.098.098 0 01.124-.54.082.082 0 01.13-.665.116.116 0 01.206-.69c.03 0 .053.007.07.021a.072.072 0 01.025.059c0 .025-.01.047-.03.066a.108.108 0 01-.076.028z" fill="#878b8d" fill-rule="nonzero" transform="translate(1681.071 1426.65) scale(158.604)"/><path d="M.02-.181c0-.083.025-.147.076-.193a.264.264 0 01.186-.069c.051 0 .093.011.124.034a.104.104 0 01.046.089.113.113 0 01-.025.073.17.17 0 01-.061.049.486.486 0 01-.132.041l-.025.003c.007.044.029.066.066.066A.254.254 0 00.374-.12l.017-.01.032.043-.011.011a.346.346 0 01-.075.054.323.323 0 01-.139.034.17.17 0 01-.131-.05C.035-.07.02-.118.02-.181zM.205-.22c.019-.003.039-.018.058-.048a.143.143 0 00.029-.073C.292-.36.286-.37.275-.37c-.017 0-.032.013-.046.039a.262.262 0 00-.024.111z" fill="#878b8d" fill-rule="nonzero" transform="translate(1728.652 1426.65) scale(158.604)"/><path d="M.282-.376c-.021 0-.038.018-.053.055a.293.293 0 00-.022.111c0 .082.024.123.071.123.03 0 .064-.014.102-.043l.032.044a.297.297 0 01-.217.098.174.174 0 01-.126-.047C.036-.067.02-.115.02-.179a.249.249 0 01.259-.264c.05 0 .089.01.118.031.029.02.043.045.043.076a.123.123 0 01-.028.081.21.21 0 01-.071-.013.171.171 0 01-.062-.031l.015-.075-.012-.002z" fill="#878b8d" fill-rule="nonzero" transform="translate(1797.803 1426.65) scale(158.604)"/><path d="M.02-.181c0-.083.025-.147.076-.193a.264.264 0 01.186-.069c.051 0 .093.011.124.034a.104.104 0 01.046.089.113.113 0 01-.025.073.17.17 0 01-.061.049.486.486 0 01-.132.041l-.025.003c.007.044.029.066.066.066A.254.254 0 00.374-.12l.017-.01.032.043-.011.011a.346.346 0 01-.075.054.323.323 0 01-.139.034.17.17 0 01-.131-.05C.035-.07.02-.118.02-.181zM.205-.22c.019-.003.039-.018.058-.048a.143.143 0 00.029-.073C.292-.36.286-.37.275-.37c-.017 0-.032.013-.046.039a.262.262 0 00-.024.111z" fill="#878b8d" fill-rule="nonzero" transform="translate(1865.051 1426.65) scale(158.604)"/><path d="M.358-.354L.27-.361c-.006.113-.019.22-.039.323A.573.573 0 01.17.155.515.515 0 01.009.123a2.059 2.059 0 00.086-.48L.029-.35A.172.172 0 01.03-.431h.072a.643.643 0 01.042-.201C.167-.678.195-.707.228-.72a.185.185 0 01.076-.013.12.12 0 01.078.026.09.09 0 01.031.072.19.19 0 01-.041.102.435.435 0 01-.099.102h.101c0 .03-.005.056-.016.077zM.329-.658c-.028 0-.046.049-.053.147a.277.277 0 00.057-.062.114.114 0 00.021-.059c0-.017-.008-.026-.025-.026z" fill="#878b8d" fill-rule="nonzero" transform="translate(1667.778 1533.495) scale(115.901)"/><path d="M.518-.405a1.102 1.102 0 00-.036.154.91.91 0 00-.015.125c0 .024.004.036.011.036l.05-.014.018.05a.307.307 0 01-.081.045.232.232 0 01-.088.021C.334.012.306-.007.295-.044a.256.256 0 01-.139.056.11.11 0 01-.094-.044.206.206 0 01-.033-.126c0-.075.019-.142.058-.199A.178.178 0 01.24-.443c.035 0 .07.01.106.029A.203.203 0 01.359-.44c.048 0 .101.012.159.035zm-.301.234c0 .034.002.055.007.064.005.009.013.013.026.013a.057.057 0 00.037-.015 1.09 1.09 0 01.038-.243.064.064 0 00-.034-.009c-.013 0-.025.007-.035.022a.146.146 0 00-.024.055.496.496 0 00-.015.113z" fill="#878b8d" fill-rule="nonzero" transform="translate(1679.168 1687.862) scale(158.604)"/><path d="M.143-.661a.209.209 0 00-.005-.046.69.69 0 01.18-.027c.007.008.01.026.01.053 0 .049-.015.142-.045.28a.313.313 0 01.142-.042.15.15 0 01.094.025c.021.017.032.04.032.07 0 .058-.043.099-.129.124.021.092.042.138.062.138l.048-.013.022.049a.33.33 0 01-.177.062.084.084 0 01-.073-.036.205.205 0 01-.032-.094 1.03 1.03 0 01-.007-.13.215.215 0 00.076-.034C.36-.298.369-.313.369-.328S.361-.35.345-.35a.118.118 0 00-.044.011.128.128 0 00-.038.021 1.679 1.679 0 00-.054.305.877.877 0 01-.183.017L.025-.015c0-.035.02-.136.059-.305.039-.168.059-.282.059-.341z" fill="#878b8d" fill-rule="nonzero" transform="translate(1763.386 1687.862) scale(158.604)"/><path d="M.02-.181c0-.083.025-.147.076-.193a.264.264 0 01.186-.069c.051 0 .093.011.124.034a.104.104 0 01.046.089.113.113 0 01-.025.073.17.17 0 01-.061.049.486.486 0 01-.132.041l-.025.003c.007.044.029.066.066.066A.254.254 0 00.374-.12l.017-.01.032.043-.011.011a.346.346 0 01-.075.054.323.323 0 01-.139.034.17.17 0 01-.131-.05C.035-.07.02-.118.02-.181zM.205-.22c.019-.003.039-.018.058-.048a.143.143 0 00.029-.073C.292-.36.286-.37.275-.37c-.017 0-.032.013-.046.039a.262.262 0 00-.024.111z" fill="#878b8d" fill-rule="nonzero" transform="translate(1850.777 1687.862) scale(158.604)"/></g><g id="colorful"><path d="M.317-.263L.276-.264c-.027.121-.04.203-.04.244a.355.355 0 01-.147.026.364.364 0 01-.048-.003c0-.042.018-.14.055-.293.037-.153.055-.247.055-.284A.097.097 0 00.14-.613a.176.176 0 00-.024-.035L.105-.662l.004-.024A2.06 2.06 0 01.404-.71c.075 0 .13.015.166.046a.155.155 0 01.054.124.272.272 0 01-.077.199c-.052.052-.129.078-.23.078zM.315-.349c.037 0 .066-.021.087-.064a.362.362 0 00.03-.154C.432-.616.416-.64.384-.64l-.032.004c0 .026-.019.122-.056.287h.019z" fill="#33bbe9" fill-rule="nonzero" transform="translate(1588.605 1426.65) scale(158.604)"/><path d="M.616-.622a.301.301 0 01.057.193.605.605 0 01-.085.283.331.331 0 01-.289.158.228.228 0 01-.184-.079.296.296 0 01-.067-.199c0-.08.015-.153.046-.22a.405.405 0 01.13-.162.312.312 0 01.188-.062c.047 0 .088.008.123.024a.195.195 0 01.081.064zm-.335.544c.012.009.03.014.053.014s.044-.014.065-.041a.295.295 0 00.047-.104C.467-.293.478-.38.478-.47c0-.109-.027-.164-.08-.164-.025 0-.048.012-.068.035a.256.256 0 00-.049.093.802.802 0 00-.037.249c0 .099.012.159.037.179z" fill="#ee367a" fill-rule="nonzero" transform="translate(1589.545 1533.495) scale(115.901)"/><path d="M.29.012a.22.22 0 01-.175-.078.324.324 0 01-.067-.219.51.51 0 01.044-.21.386.386 0 01.126-.156.302.302 0 01.178-.059c.063 0 .116.013.158.038.041.025.062.058.062.099a.136.136 0 01-.034.098.307.307 0 01-.17-.055l.019-.097a.091.091 0 00-.041-.01c-.039 0-.073.033-.102.1a.595.595 0 00-.044.236c0 .135.038.202.114.202.045 0 .096-.025.152-.074l.047.047a.455.455 0 01-.103.09.398.398 0 01-.074.033.283.283 0 01-.09.015z" fill="#5fc4b4" fill-rule="nonzero" transform="translate(1587.495 1687.862) scale(158.604)"/></g></g></g></svg>