<svg viewBox="0 0 868 753" xmlns="http://www.w3.org/2000/svg" fill-rule="evenodd" clip-rule="evenodd" stroke-miterlimit="10"><path fill="url(#_Linear1)" d="M571.33 540.71h104.76v64.38H571.33z" transform="rotate(-16.6 288.33 1106.545)"/><path fill="#fff" d="M399.568 484.6l96.992-28.914 17.167 57.586-96.992 28.914z"/><g opacity=".6"><path fill="#5fc4b4" d="M420.202 493.074l-12.343 3.68-2.723-9.133 12.343-3.68zM470.659 497.375l-47.38 14.125-.883-2.962 47.38-14.124zM472.577 503.789l-34.548 10.299-.588-1.974 34.547-10.3z"/></g><path fill="url(#_Linear2)" d="M834.2 370.12h64.38v104.76H834.2z" transform="rotate(-78.98 738.507 486.643)"/><path fill="#fff" d="M642.65 368.919l11.416-58.888 99.186 19.23-11.417 58.888z"/><g opacity=".6"><path fill="#5fc4b4" d="M669.925 326.215l-12.642-2.462 1.821-9.354 12.643 2.462zM712.635 353.418l-48.528-9.45.59-3.034 48.529 9.45zM711.36 359.999l-35.385-6.891.393-2.022 35.386 6.89z"/></g><path fill="url(#_Linear3)" d="M844.2 514.16h64.38v104.76H844.2z" transform="rotate(-23.45 615.711 930.579)"/><path fill="#fff" d="M662.595 457.74l55.127-23.913 40.276 92.85-55.127 23.913z"/><g opacity=".6"><path fill="#5fc4b4" d="M711.62 455.288l-5.126-11.816 8.743-3.793 5.125 11.816zM713.366 505.9l-19.675-45.357 2.835-1.23 19.675 45.357zM707.215 508.568l-14.346-33.073 1.89-.82 14.346 33.073z"/></g><path fill="url(#_Linear4)" d="M504.85 237.24h104.76v64.38H504.85z" transform="rotate(-16.6 221.794 802.987)"/><path fill="#fff" d="M333.11 181.121l96.993-28.914 17.167 57.585-96.992 28.915z"/><g opacity=".6"><path fill="#5fc4b4" d="M353.689 189.614l-12.343 3.68-2.723-9.133 12.343-3.68zM404.155 193.912l-47.38 14.125-.882-2.962 47.38-14.124zM406.064 200.329l-34.548 10.299-.588-1.975 34.547-10.299z"/></g><path fill="url(#_Linear5)" d="M767.72 66.65h64.38v104.76h-64.38z" transform="rotate(-78.98 672.023 183.172)"/><path fill="#fff" d="M577.72 64.579l11.486-58.982 99.344 19.346-11.487 58.982z"/><g opacity=".6"><path fill="#5fc4b4" d="M603.44 22.747l-12.642-2.462 1.822-9.354 12.642 2.462zM646.15 49.95l-48.528-9.45.59-3.034 48.53 9.45zM644.877 56.523l-35.385-6.891.393-2.022 35.386 6.89z"/></g><path fill="url(#_Linear6)" d="M777.71 210.69h64.38v104.76h-64.38z" transform="rotate(-23.45 549.228 627.12)"/><path fill="#fff" d="M596.11 154.27l55.127-23.914 40.276 92.851-55.127 23.913z"/><g opacity=".6"><path fill="#5fc4b4" d="M645.14 151.823l-5.126-11.817 8.742-3.792 5.126 11.816zM646.876 202.434L627.2 157.078l2.835-1.23 19.674 45.357zM640.729 205.112l-14.346-33.072 1.89-.82 14.346 33.072z"/></g><path fill="url(#_Linear7)" d="M222.82 465.65h104.76v64.38H222.82z" transform="rotate(-16.6 -60.305 1031.463)"/><path fill="#fff" d="M51.069 409.511l96.991-28.914 17.167 57.586-96.991 28.914z"/><g opacity=".6"><path fill="#5fc4b4" d="M71.694 418.044l-12.343 3.68-2.723-9.134 12.343-3.68zM122.16 422.341l-47.379 14.125-.883-2.961 47.38-14.125zM124.079 428.755L89.53 439.054l-.589-1.974 34.548-10.3z"/></g><path fill="url(#_Linear8)" d="M485.7 295.06h64.38v104.76H485.7z" transform="rotate(-78.98 390.003 411.583)"/><path fill="#fff" d="M294.665 293.397l11.417-58.888 99.186 19.23-11.417 58.888z"/><g opacity=".6"><path fill="#5fc4b4" d="M321.411 251.148l-12.642-2.463 1.821-9.354 12.643 2.462zM364.131 278.352l-48.528-9.45.59-3.033 48.529 9.45zM362.856 284.933l-35.385-6.891.393-2.022 35.386 6.89z"/></g><path fill="url(#_Linear9)" d="M495.69 439.09h64.38v104.76h-64.38z" transform="rotate(-23.45 267.224 855.513)"/><path fill="#fff" d="M314.094 382.675l55.127-23.913 40.276 92.85-55.127 23.914z"/><g opacity=".6"><path fill="#5fc4b4" d="M363.115 380.228l-5.126-11.816 8.743-3.792 5.126 11.816zM364.861 430.83l-19.674-45.357 2.834-1.23 19.675 45.357zM358.714 433.504l-14.346-33.073 1.89-.82 14.346 33.073z"/></g><path fill="url(#_Linear10)" d="M234.62 284.42h104.76v64.38H234.62z" transform="rotate(-16.6 -48.491 850.19)"/><path fill="#fff" d="M64.504 227.75l97.162-29.352 17.426 57.687-97.162 29.35z"/><g opacity=".6"><path fill="#5fc4b4" d="M83.478 236.82l-12.343 3.679-2.723-9.133 12.343-3.68zM133.935 241.12l-47.38 14.124-.883-2.961 47.38-14.124zM135.853 247.533l-34.548 10.3-.588-1.975 34.547-10.299z"/></g><path fill="url(#_Linear11)" d="M497.49 113.83h64.38v104.76h-64.38z" transform="rotate(-79 401.601 231.038)"/><path fill="#fff" d="M307.494 111.765l11.487-58.982 99.344 19.346-11.487 58.982z"/><g opacity=".6"><path fill="#5fc4b4" d="M333.216 69.932l-12.642-2.462 1.821-9.354 12.643 2.462zM375.928 97.125l-48.528-9.45.59-3.033 48.529 9.45zM374.643 103.706l-35.385-6.891.393-2.022 35.386 6.89z"/></g><path fill="url(#_Linear12)" d="M507.49 257.87h64.38v104.76h-64.38z" transform="rotate(-23.45 279.027 674.296)"/><path fill="#fff" d="M325.884 201.46l55.127-23.913 40.276 92.851-55.127 23.913z"/><g opacity=".6"><path fill="#5fc4b4" d="M374.92 199.009l-5.125-11.817 8.743-3.792 5.125 11.816zM376.657 249.62l-19.675-45.356 2.835-1.23 19.675 45.357zM370.515 252.275l-14.346-33.073 1.89-.82 14.346 33.073z"/></g><circle cx="63.9" cy="61.26" r="5.47" fill="#535461" fill-opacity=".25"/><circle cx="634.96" cy="540.36" r="5.47" fill="#535461" fill-opacity=".25"/><circle cx="151.79" cy="513.16" r="5.47" fill="#535461" fill-opacity=".25"/><circle cx="685.81" cy="437.02" r="5.47" fill="#535461" fill-opacity=".25"/><circle cx="737.28" cy="186.1" r="5.47" fill="#535461" fill-opacity=".25"/><path d="M333.44 4.87h-4.86V0h-1.99v4.87h-4.86v1.98h4.86v4.86h1.99V6.85h4.86V4.87zM146.29 79.4h-4.86v-4.86h-1.99v4.86h-4.86v1.99h4.86v4.86h1.99v-4.86h4.86V79.4zM70.16 357.13H65.3v-4.86h-1.99v4.86h-4.86v1.99h4.86v4.86h1.99v-4.86h4.86v-1.99zM59.23 159.07h-4.87v-4.87h-1.98v4.87h-4.87v1.98h4.87v4.87h1.98v-4.87h4.87v-1.98zM11.71 295.17H6.85v-4.87H4.87v4.87H0v1.98h4.87v4.86h1.98v-4.86h4.86v-1.98zM867.19 224.99h-4.86v-4.86h-1.99v4.86h-4.86v1.99h4.86v4.86h1.99v-4.86h4.86v-1.99zM697.76 288.26h-4.86v-4.87h-1.99v4.87h-4.86v1.98h4.86v4.87h1.99v-4.87h4.86v-1.98zM553.08 117.62h-4.87v-4.86h-1.98v4.86h-4.87v1.99h4.87v4.86h1.98v-4.86h4.87v-1.99z" fill="#535461" fill-opacity=".25" fill-rule="nonzero"/><path d="M440.3 469.38c-3.5 11.36 1.75 24.79 12 30.77 4.29 2.5 9.24 3.77 13.41 6.48 9.05 5.89 12.62 17.19 15.56 27.58 3.37 11.95 6.76 24.58 3.67 36.6-2 7.66-6.45 14.44-9 21.94a45.783 45.783 0 00-2.17 19.54c.37 3.5 1.25 7.14 3.64 9.72 3.46 3.73 9 4.29 14 5.19a68.238 68.238 0 0149 38" fill="none" stroke="url(#_Linear13)" stroke-width="2" transform="translate(-166.4 -73.64)"/><path d="M274.97 395.74c-3.5 11.36 1.75 24.79 12 30.77 4.29 2.5 9.24 3.77 13.41 6.48 9.05 5.89 12.62 17.19 15.56 27.58 3.37 11.95 6.76 24.58 3.67 36.6-2 7.66-6.45 14.44-9 21.94a45.783 45.783 0 00-2.17 19.54c.37 3.5 1.25 7.14 3.64 9.72 3.46 3.73 9 4.29 14 5.19a68.238 68.238 0 0149 38" fill="none" stroke="#535461" stroke-width="2"/><path d="M573.84 384.5c-8.63 12-17.59 25-18.33 39.77-1.13 22.73 17 41.32 25.17 62.58a74.408 74.408 0 01-2.5 58.15c-4 8.19-9.61 16.32-8.92 25.39.42 5.54 3.19 10.57 5.42 15.66 11.091 25.849 9.187 55.502-5.12 79.72" fill="none" stroke="url(#_Linear14)" stroke-width="2" transform="translate(-166.4 -73.64)"/><path d="M408.51 310.86c-8.63 12-17.59 25-18.33 39.77-1.13 22.73 17 41.32 25.17 62.58a74.408 74.408 0 01-2.49 58.15c-4 8.19-9.61 16.32-8.92 25.39.42 5.54 3.19 10.57 5.42 15.66 11.091 25.849 9.187 55.502-5.12 79.72" fill="none" stroke="#535461" stroke-width="2"/><path d="M695 492.76l4.17 34c.55 4.52 1 9.45-1.4 13.3-2.3 3.65-6.61 5.39-10 8.09-11 8.85-10 25.85-6.24 39.48 3.76 13.63 9.28 28.27 4 41.38-2.18 5.41-6 10-8.91 15a46.076 46.076 0 00-5.51 28.58" fill="none" stroke="url(#_Linear15)" stroke-width="2" transform="translate(-166.4 -73.64)"/><path d="M529.6 419.12l4.17 34c.55 4.52 1 9.45-1.4 13.3-2.3 3.65-6.61 5.39-10 8.09-11 8.85-10 25.85-6.24 39.48 3.76 13.63 9.28 28.27 4 41.38-2.18 5.41-6 10-8.91 15a46.076 46.076 0 00-5.51 28.58" fill="none" stroke="#535461" stroke-width="2"/><path d="M803.22 352.89c-.045-55.321-45.579-100.819-100.9-100.819A100.918 100.918 0 00671.17 257a121.258 121.258 0 001.29-17.12l.002-.622c0-55.319-45.521-100.84-100.84-100.84-52.822 0-97.15 41.504-100.622 94.212a100.907 100.907 0 00-31.2-4.945c-55.324 0-100.859 45.501-100.9 100.825 0 50.6 37.26 122.57 85.85 135.32l7.55 4.32-4.1 14.06h24.3l-5.28-14.08 7.52-4.3c37.54-9.85 68.31-55.05 80.37-98.44a73.695 73.695 0 0021.51 9.79l7.55 4.32-4.1 14.06h24.3l-5.28-14.08 7.52-4.3a70.359 70.359 0 0016-6.5c6.49 48.65 41 108.06 84.74 119.53l7.55 4.32-4.1 14.06h24.3l-5.28-14.08 7.52-4.3c48.66-12.75 85.88-84.72 85.88-135.32z" fill="url(#_Linear16)" fill-rule="nonzero" transform="translate(-166.4 -73.64)" opacity=".7"/><path d="M289.93 403.41h-23.51l4.11-14.11h14.11l5.29 14.11zM375.17 254.69c0 53.89-43.69 132.85-97.58 132.85s-97.58-79-97.58-132.85c0-53.531 44.049-97.58 97.58-97.58s97.58 44.049 97.58 97.58z" fill="#ee367a" fill-rule="nonzero"/><path d="M284.64 389.89h-14.11l-8.23-4.7h30.57l-8.23 4.7z" fill="#535461" fill-rule="nonzero"/><path d="M242.32 178.86s-41.15 22.34-47 67" fill="#fff" fill-opacity=".1" fill-rule="nonzero"/><path d="M417.54 317.63h-23.51l4.11-14.11h14.11l5.29 14.11zM502.78 168.9c0 53.89-43.69 132.85-97.58 132.85s-97.6-78.95-97.6-132.85c0-53.531 44.049-97.58 97.58-97.58s97.58 44.049 97.58 97.58h.02z" fill="#33bbe9" fill-rule="nonzero"/><path d="M412.25 304.11h-14.11l-8.23-4.71h30.57l-8.23 4.71z" fill="#535461" fill-rule="nonzero"/><path d="M369.93 93.07s-41.15 22.34-47 67" fill="#fff" fill-opacity=".1" fill-rule="nonzero"/><path d="M544.08 427h-23.52l4.12-14.1h14.1l5.3 14.1zM629.32 278.28c0 53.89-43.69 132.85-97.58 132.85s-97.58-79-97.58-132.85c0-53.531 44.049-97.58 97.58-97.58s97.58 44.049 97.58 97.58z" fill="#5fc4b4" fill-rule="nonzero"/><path d="M538.78 413.48h-14.1l-8.23-4.7h30.56l-8.23 4.7z" fill="#535461" fill-rule="nonzero"/><path d="M496.46 202.45s-41.15 22.34-47 67" fill="#fff" fill-opacity=".1" fill-rule="nonzero"/><g transform="matrix(-.56 .11079 .11079 .56 544.767 480.332)"><g id="van"><path d="M128 160c0-8.832-7.168-16-16-16H16c-8.832 0-16 7.168-16 16s7.168 16 16 16h96c8.832 0 16-7.168 16-16zM112 208H48c-8.832 0-16 7.168-16 16s7.168 16 16 16h64c8.832 0 16-7.168 16-16s-7.168-16-16-16zM112 272H80c-8.832 0-16 7.168-16 16s7.168 16 16 16h32c8.832 0 16-7.168 16-16s-7.168-16-16-16z" fill="#fbc010" fill-rule="nonzero"/><path d="M509.728 263.776l-48-80A15.964 15.964 0 00448 176H336c-8.832 0-16 7.168-16 16v160c0 8.832 7.168 16 16 16h160c8.832 0 16-7.168 16-16v-80c0-2.912-.768-5.76-2.272-8.224z" fill="#878b8d" fill-rule="nonzero"/><path d="M384 208h54.944l38.4 64H384v-64z" fill="#ebf4f9" fill-rule="nonzero"/><path d="M336 112H112c-8.832 0-16 7.168-16 16v224c0 8.832 7.168 16 16 16h240V128c0-8.832-7.168-16-16-16z" fill="#fbc010" fill-rule="nonzero"/><circle cx="432" cy="352" r="32" fill="#ebf4f9"/><path d="M432 400c-26.464 0-48-21.536-48-48s21.536-48 48-48 48 21.536 48 48-21.536 48-48 48zm0-64c-8.8 0-16 7.2-16 16s7.2 16 16 16 16-7.2 16-16-7.2-16-16-16z" fill="#455a64" fill-rule="nonzero"/><path d="M352 368H112c-8.832 0-16-7.168-16-16v-48h256v64z" fill="#878b8d" fill-rule="nonzero"/><circle cx="208" cy="352" r="32" fill="#ebf4f9"/><path d="M208 400c-26.464 0-48-21.536-48-48s21.536-48 48-48 48 21.536 48 48-21.536 48-48 48zm0-64c-8.832 0-16 7.2-16 16s7.168 16 16 16 16-7.2 16-16-7.168-16-16-16z" fill="#455a64" fill-rule="nonzero"/></g></g><defs><linearGradient id="_Linear9" x1="0" y1="0" x2="1" y2="0" gradientUnits="userSpaceOnUse" gradientTransform="translate(495.69 491.47) scale(64.38)"><stop offset="0" stop-color="gray" stop-opacity=".25"/><stop offset=".54" stop-color="gray" stop-opacity=".12"/><stop offset="1" stop-color="gray" stop-opacity=".1"/></linearGradient><linearGradient id="_Linear1" x1="0" y1="0" x2="1" y2="0" gradientUnits="userSpaceOnUse" gradientTransform="rotate(-90 614.4 -9.31) scale(64.38)"><stop offset="0" stop-color="gray" stop-opacity=".25"/><stop offset=".54" stop-color="gray" stop-opacity=".12"/><stop offset="1" stop-color="gray" stop-opacity=".1"/></linearGradient><linearGradient id="_Linear3" x1="0" y1="0" x2="1" y2="0" gradientUnits="userSpaceOnUse" gradientTransform="translate(844.2 566.53) scale(64.38)"><stop offset="0" stop-color="gray" stop-opacity=".25"/><stop offset=".54" stop-color="gray" stop-opacity=".12"/><stop offset="1" stop-color="gray" stop-opacity=".1"/></linearGradient><linearGradient id="_Linear4" x1="0" y1="0" x2="1" y2="0" gradientUnits="userSpaceOnUse" gradientTransform="matrix(0 -64.38 64.38 0 557.23 301.62)"><stop offset="0" stop-color="gray" stop-opacity=".25"/><stop offset=".54" stop-color="gray" stop-opacity=".12"/><stop offset="1" stop-color="gray" stop-opacity=".1"/></linearGradient><linearGradient id="_Linear5" x1="0" y1="0" x2="1" y2="0" gradientUnits="userSpaceOnUse" gradientTransform="translate(767.72 119.03) scale(64.38)"><stop offset="0" stop-color="gray" stop-opacity=".25"/><stop offset=".54" stop-color="gray" stop-opacity=".12"/><stop offset="1" stop-color="gray" stop-opacity=".1"/></linearGradient><linearGradient id="_Linear6" x1="0" y1="0" x2="1" y2="0" gradientUnits="userSpaceOnUse" gradientTransform="translate(777.71 263.07) scale(64.38)"><stop offset="0" stop-color="gray" stop-opacity=".25"/><stop offset=".54" stop-color="gray" stop-opacity=".12"/><stop offset="1" stop-color="gray" stop-opacity=".1"/></linearGradient><linearGradient id="_Linear7" x1="0" y1="0" x2="1" y2="0" gradientUnits="userSpaceOnUse" gradientTransform="rotate(-90 402.62 127.41) scale(64.39)"><stop offset="0" stop-color="gray" stop-opacity=".25"/><stop offset=".54" stop-color="gray" stop-opacity=".12"/><stop offset="1" stop-color="gray" stop-opacity=".1"/></linearGradient><linearGradient id="_Linear8" x1="0" y1="0" x2="1" y2="0" gradientUnits="userSpaceOnUse" gradientTransform="translate(485.69 347.44) scale(64.38)"><stop offset="0" stop-color="gray" stop-opacity=".25"/><stop offset=".54" stop-color="gray" stop-opacity=".12"/><stop offset="1" stop-color="gray" stop-opacity=".1"/></linearGradient><linearGradient id="_Linear2" x1="0" y1="0" x2="1" y2="0" gradientUnits="userSpaceOnUse" gradientTransform="translate(834.2 422.49) scale(64.38)"><stop offset="0" stop-color="gray" stop-opacity=".25"/><stop offset=".54" stop-color="gray" stop-opacity=".12"/><stop offset="1" stop-color="gray" stop-opacity=".1"/></linearGradient><linearGradient id="_Linear10" x1="0" y1="0" x2="1" y2="0" gradientUnits="userSpaceOnUse" gradientTransform="matrix(0 -64.38 64.38 0 287 348.8)"><stop offset="0" stop-color="gray" stop-opacity=".25"/><stop offset=".54" stop-color="gray" stop-opacity=".12"/><stop offset="1" stop-color="gray" stop-opacity=".1"/></linearGradient><linearGradient id="_Linear11" x1="0" y1="0" x2="1" y2="0" gradientUnits="userSpaceOnUse" gradientTransform="translate(497.49 166.21) scale(64.38)"><stop offset="0" stop-color="gray" stop-opacity=".25"/><stop offset=".54" stop-color="gray" stop-opacity=".12"/><stop offset="1" stop-color="gray" stop-opacity=".1"/></linearGradient><linearGradient id="_Linear12" x1="0" y1="0" x2="1" y2="0" gradientUnits="userSpaceOnUse" gradientTransform="translate(507.49 310.24) scale(64.38)"><stop offset="0" stop-color="gray" stop-opacity=".25"/><stop offset=".54" stop-color="gray" stop-opacity=".12"/><stop offset="1" stop-color="gray" stop-opacity=".1"/></linearGradient><linearGradient id="_Linear13" x1="0" y1="0" x2="1" y2="0" gradientUnits="userSpaceOnUse" gradientTransform="translate(438.22 567.33) scale(103.18)"><stop offset="0" stop-color="gray" stop-opacity=".25"/><stop offset=".54" stop-color="gray" stop-opacity=".12"/><stop offset="1" stop-color="gray" stop-opacity=".1"/></linearGradient><linearGradient id="_Linear14" x1="0" y1="0" x2="1" y2="0" gradientUnits="userSpaceOnUse" gradientTransform="translate(554.46 525.12) scale(31.97)"><stop offset="0" stop-color="gray" stop-opacity=".25"/><stop offset=".54" stop-color="gray" stop-opacity=".12"/><stop offset="1" stop-color="gray" stop-opacity=".1"/></linearGradient><linearGradient id="_Linear15" x1="0" y1="0" x2="1" y2="0" gradientUnits="userSpaceOnUse" gradientTransform="matrix(30.9 0 0 30.9 669.68 582.71)"><stop offset="0" stop-color="gray" stop-opacity=".25"/><stop offset=".54" stop-color="gray" stop-opacity=".12"/><stop offset="1" stop-color="gray" stop-opacity=".1"/></linearGradient><linearGradient id="_Linear16" x1="0" y1="0" x2="1" y2="0" gradientUnits="userSpaceOnUse" gradientTransform="matrix(0 -367.57 367.57 0 571.06 506.59)"><stop offset="0" stop-color="gray" stop-opacity=".25"/><stop offset=".54" stop-color="gray" stop-opacity=".12"/><stop offset="1" stop-color="gray" stop-opacity=".1"/></linearGradient></defs></svg>